<svg width="29" height="33" viewBox="0 0 29 33" fill="none" xmlns="http://www.w3.org/2000/svg">
<path d="M10.4502 18.7021V21.4255H9.77517L7.75013 23.468L4.36899 25.0735C2.54713 25.55 1.03443 26.8886 1 28.2339V32.9998" stroke="#8C1E1E" stroke-width="2" stroke-miterlimit="10"/>
<path d="M21.2526 7.12757V8.48925L22.6027 9.17009V11.8458C22.6027 12.3013 22.3772 12.7261 22.0012 12.9787L21.2526 13.936C21.2526 13.936 21.2526 15.0035 21.2526 15.2977C21.2526 17.9359 17.7932 19.0852 17.2025 19.3827C16.6119 19.6802 15.5994 20.0635 14.5025 20.0635C13.4056 20.0635 12.3931 19.6802 11.8024 19.3827C11.2118 19.0852 7.75237 17.9359 7.75237 15.2977C7.75237 14.9811 7.75237 13.936 7.75237 13.936L7.00377 12.9787C6.62779 12.7261 6.40234 12.3013 6.40234 11.8458V9.17009L7.75237 8.48925V7.12757C7.75237 3.74311 10.472 1 13.8275 1H15.1775C18.533 1 21.2526 3.74311 21.2526 7.12757Z" stroke="#8C1E1E" stroke-width="2" stroke-miterlimit="10"/>
<path d="M10.4492 21.4258L14.4993 24.83" stroke="#8C1E1E" stroke-width="2" stroke-miterlimit="10"/>
<path d="M14.5001 24.8295L11.1251 27.5528L7.75 23.4678" stroke="#8C1E1E" stroke-width="2" stroke-miterlimit="10"/>
<path d="M18.5508 18.7021V21.4255H19.2258L21.2508 23.468L24.632 25.0735C26.4538 25.55 27.9665 26.8886 28.001 28.2339V32.9998" stroke="#8C1E1E" stroke-width="2" stroke-miterlimit="10"/>
<path d="M18.5501 21.4258L14.5 24.83" stroke="#8C1E1E" stroke-width="2" stroke-miterlimit="10"/>
<path d="M14.5 24.8295L17.8751 27.5528L21.2501 23.4678" stroke="#8C1E1E" stroke-width="2" stroke-miterlimit="10"/>
<path d="M16.5266 26.1914L15.8516 29.5956H13.1516L12.4766 26.1914" stroke="#8C1E1E" stroke-width="2" stroke-miterlimit="10"/>
<path d="M16.5266 32.3191L15.8516 29.5957H13.1516L12.4766 32.3191" stroke="#8C1E1E" stroke-width="2" stroke-miterlimit="10"/>
</svg>
