<svg width="48" height="45" viewBox="0 0 48 45" fill="none" xmlns="http://www.w3.org/2000/svg">
<path d="M37.7561 19.0029L32.5011 3.15593C32.1531 2.10793 31.0221 1.53893 29.9731 1.88693L2.44705 11.0149C1.39905 11.3619 0.831054 12.4939 1.17805 13.5419L6.84405 30.6269C7.19205 31.6749 8.32306 32.2439 9.37206 31.8959L11.0001 31.3579" stroke="#8C1E1E" stroke-width="2" stroke-miterlimit="10"/>
<path d="M33.445 6.00391L2.12305 16.3909" stroke="#8C1E1E" stroke-width="2" stroke-miterlimit="10"/>
<path d="M35.0193 10.75L3.69629 21.137" stroke="#8C1E1E" stroke-width="2" stroke-miterlimit="10"/>
<path d="M16 22C14.896 22 14 22.896 14 24V42C14 43.1 14.9 44 16 44H45C46.104 44 47 43.104 47 42V24C47 22.896 46.104 22 45 22H16Z" stroke="#8C1E1E" stroke-width="2" stroke-miterlimit="10"/>
<path d="M18 38H22" stroke="#8C1E1E" stroke-width="2" stroke-miterlimit="10"/>
<path d="M25 38H29" stroke="#8C1E1E" stroke-width="2" stroke-miterlimit="10"/>
<path d="M32 38H36" stroke="#8C1E1E" stroke-width="2" stroke-miterlimit="10"/>
<path d="M39 38H43" stroke="#8C1E1E" stroke-width="2" stroke-miterlimit="10"/>
<path d="M43 30C43 31.657 41.657 33 40 33H39C37.343 33 36 31.657 36 30C36 28.343 37.343 27 39 27H40C41.657 27 43 28.343 43 30Z" stroke="#8C1E1E" stroke-width="2" stroke-miterlimit="10"/>
</svg>
