<svg width="43" height="48" viewBox="0 0 43 48" fill="none" xmlns="http://www.w3.org/2000/svg">
<path d="M37 5V33H23" stroke="#8C1E1E" stroke-width="2" stroke-miterlimit="10"/>
<path d="M15 28V5" stroke="#8C1E1E" stroke-width="2" stroke-miterlimit="10"/>
<path d="M20.9941 24.493C18.1411 25.91 17.5011 29.985 16.9091 31.279C16.0091 33.245 16.2641 33.676 15.2461 33.676C14.2281 33.676 11.0001 31.691 11.0001 31.691V26.875L15.0001 22V12L3.30409 23.405C1.70109 25.206 0.991084 27.589 1.00008 30C1.01808 34.801 1.00108 44 1.00008 47H13.3041C13.3041 47 17.9161 44.833 20.0001 42C22.0841 39.167 23.5311 31.45 24.2961 29.261C26.1431 23.973 23.6031 23.197 20.9941 24.493Z" stroke="#8C1E1E" stroke-width="2" stroke-miterlimit="10"/>
<path d="M19 13V22" stroke="#8C1E1E" stroke-width="2" stroke-miterlimit="10"/>
<path d="M25 29H30C30 27.343 31.343 26 33 26V13" stroke="#8C1E1E" stroke-width="2" stroke-miterlimit="10"/>
<path d="M32.336 5.00002C32.762 5.65302 33 6.38402 33 7.15402C33 9.94902 29.866 12.092 26 12.092C22.134 12.092 19 9.94902 19 7.15402C19 6.38302 19.238 5.65302 19.664 4.99902" stroke="#8C1E1E" stroke-width="2" stroke-miterlimit="10"/>
<path d="M26 17V19" stroke="#8C1E1E" stroke-width="2" stroke-miterlimit="10"/>
<path d="M12 8H10V1H42V8H40" stroke="#8C1E1E" stroke-width="2" stroke-miterlimit="10"/>
<path d="M39 5H13" stroke="#8C1E1E" stroke-width="2" stroke-miterlimit="10"/>
</svg>
