<svg width="43" height="42" viewBox="0 0 43 42" fill="none" xmlns="http://www.w3.org/2000/svg">
<path d="M10 15V16C10 17.104 10.896 18 12 18H14C15.104 18 16 17.104 16 16V15.441C16 14.581 15.449 13.816 14.632 13.544L11.367 12.456C10.55 12.184 9.99902 11.419 9.99902 10.559V10C9.99902 8.896 10.895 8 11.999 8H13.999C15.103 8 15.999 8.896 15.999 10V11" stroke="#8C1E1E" stroke-width="2" stroke-miterlimit="10"/>
<path d="M13 8V5" stroke="#8C1E1E" stroke-width="2" stroke-miterlimit="10"/>
<path d="M13 18V21" stroke="#8C1E1E" stroke-width="2" stroke-miterlimit="10"/>
<path d="M23 29.0593H30.7333C30.7333 29.0593 32 29.1618 32 27.6449C32 26.1291 32 25.2316 32 25.2316V25.8291C32 25.8291 32 25.9316 32 24.4158C32 22.8989 30.7323 23.0015 30.7323 23.0015H25.6993V35" stroke="#8C1E1E" stroke-width="2" stroke-miterlimit="10"/>
<path d="M23 32.0312H29.907" stroke="#8C1E1E" stroke-width="2" stroke-miterlimit="10"/>
<path d="M28.5 40C34.8513 40 40 34.8513 40 28.5C40 22.1487 34.8513 17 28.5 17C22.1487 17 17 22.1487 17 28.5C17 34.8513 22.1487 40 28.5 40Z" stroke="#8C1E1E" stroke-width="2" stroke-miterlimit="10"/>
<path d="M14.182 24.942C13.793 24.98 13.399 25 13 25C6.373 25 1 19.627 1 13C1 6.373 6.373 1 13 1C19.627 1 25 6.373 25 13C25 13.414 24.979 13.823 24.938 14.227" stroke="#8C1E1E" stroke-width="2" stroke-miterlimit="10"/>
<path d="M18 41C9 41 4 35.784 4 27.5V26" stroke="#8C1E1E" stroke-width="2" stroke-miterlimit="10"/>
<path d="M1 29L4 26L7 29" stroke="#8C1E1E" stroke-width="2" stroke-miterlimit="10"/>
<path d="M25 2C34 2 39 7.216 39 15.5V17" stroke="#8C1E1E" stroke-width="2" stroke-miterlimit="10"/>
<path d="M42 14L39 17L36 14" stroke="#8C1E1E" stroke-width="2" stroke-miterlimit="10"/>
</svg>
