<svg width="48" height="39" viewBox="0 0 48 39" fill="none" xmlns="http://www.w3.org/2000/svg">
<path d="M3 27V32C3 33.1 3.9 34 5 34H45C46.1 34 47 33.1 47 32V3C47 1.9 46.1 1 45 1H5C3.9 1 3 1.9 3 3V8" stroke="#8C1E1E" stroke-width="2" stroke-miterlimit="10" stroke-linejoin="round"/>
<path d="M7 27V31" stroke="#8C1E1E" stroke-width="2" stroke-miterlimit="10" stroke-linejoin="round"/>
<path d="M7 13V22" stroke="#8C1E1E" stroke-width="2" stroke-miterlimit="10" stroke-linejoin="round"/>
<path d="M42 4V31" stroke="#8C1E1E" stroke-width="2" stroke-miterlimit="10" stroke-linejoin="round"/>
<path d="M7 4V7" stroke="#8C1E1E" stroke-width="2" stroke-miterlimit="10" stroke-linejoin="round"/>
<path d="M8 37L9.097 38H17L18 37" stroke="#8C1E1E" stroke-width="2" stroke-miterlimit="10" stroke-linejoin="round"/>
<path d="M32 37L33.097 38H41L42 37" stroke="#8C1E1E" stroke-width="2" stroke-miterlimit="10" stroke-linejoin="round"/>
<path d="M9 13H2C1.448 13 1 12.552 1 12V9C1 8.448 1.448 8 2 8H9V13Z" stroke="#8C1E1E" stroke-width="2" stroke-miterlimit="10" stroke-linejoin="round"/>
<path d="M9 27H2C1.448 27 1 26.552 1 26V23C1 22.448 1.448 22 2 22H9V27Z" stroke="#8C1E1E" stroke-width="2" stroke-miterlimit="10" stroke-linejoin="round"/>
<path d="M3 13V22" stroke="#8C1E1E" stroke-width="2" stroke-miterlimit="10" stroke-linejoin="round"/>
<path d="M24 15.171C24.313 15.06 24.649 15 25 15C26.657 15 28 16.343 28 18C28 19.657 26.657 21 25 21C23.343 21 22 19.657 22 18C22 17.649 22.06 17.313 22.171 17" stroke="#8C1E1E" stroke-width="2" stroke-miterlimit="10" stroke-linejoin="round"/>
<path d="M25 25C28.866 25 32 21.866 32 18C32 14.134 28.866 11 25 11C21.134 11 18 14.134 18 18C18 21.866 21.134 25 25 25Z" stroke="#8C1E1E" stroke-width="2" stroke-miterlimit="10" stroke-linejoin="round"/>
<path d="M25 7V11" stroke="#8C1E1E" stroke-width="2" stroke-miterlimit="10" stroke-linejoin="round"/>
<path d="M36 18H32" stroke="#8C1E1E" stroke-width="2" stroke-miterlimit="10" stroke-linejoin="round"/>
<path d="M25 29V25" stroke="#8C1E1E" stroke-width="2" stroke-miterlimit="10" stroke-linejoin="round"/>
<path d="M14 18H18" stroke="#8C1E1E" stroke-width="2" stroke-miterlimit="10" stroke-linejoin="round"/>
<path d="M32.7772 10.222L29.9492 13.05" stroke="#8C1E1E" stroke-width="2" stroke-miterlimit="10" stroke-linejoin="round"/>
<path d="M32.7772 25.778L29.9492 22.95" stroke="#8C1E1E" stroke-width="2" stroke-miterlimit="10" stroke-linejoin="round"/>
<path d="M17.2227 25.778L20.0507 22.95" stroke="#8C1E1E" stroke-width="2" stroke-miterlimit="10" stroke-linejoin="round"/>
<path d="M17.2227 10.222L20.0507 13.05" stroke="#8C1E1E" stroke-width="2" stroke-miterlimit="10" stroke-linejoin="round"/>
</svg>
