<svg width="40" height="48" viewBox="0 0 40 48" fill="none" xmlns="http://www.w3.org/2000/svg">
<path d="M20.011 1C18.163 3.623 5.838 9 1 9C1 17.733 1 20.484 1 28C1 36.932 18.944 46.705 20 46.987C21.056 46.705 39 36.25 39 29C39 21.484 39 17.733 39 9C33.723 9 21.857 3.623 20.011 1Z" stroke="#8C1E1E" stroke-width="2" stroke-miterlimit="10" stroke-linejoin="round"/>
<path d="M31.035 34.283C33.296 32.149 35 29.879 35 27.911C35 22.03 35 19.095 35 12.26C30.833 12.26 21.467 8.052 20.009 6C19.419 6.829 17.48 8.011 15.125 9.124" stroke="#8C1E1E" stroke-width="2" stroke-miterlimit="10" stroke-linejoin="round"/>
<path d="M10.948 10.855C8.635 11.685 6.413 12.26 5 12.26C5 19.094 5 21.247 5 27.129C5 34.119 19.167 41.78 20 42C20.378 41.9 23.497 40.15 26.794 37.752" stroke="#8C1E1E" stroke-width="2" stroke-miterlimit="10" stroke-linejoin="round"/>
</svg>
