<svg width="48" height="43" viewBox="0 0 48 43" fill="none" xmlns="http://www.w3.org/2000/svg">
<path d="M11.2929 24.109C9.60491 26.218 7.0739 29.75 7.3289 32.443C7.5559 34.843 9.00989 37.172 11.3619 37.629L33.5039 41.922" stroke="#8C1E1E" stroke-width="2" stroke-miterlimit="10"/>
<path d="M16.4019 17.001C18.2819 14.512 23.0009 9 23.0009 5C23.0009 4 23.0009 2 23.0009 2L47.0009 5C47.0009 5 47.0009 6 47.0009 8C47.0009 17 29.4638 27.833 29.4698 36.736C29.4718 39.147 31.1509 41.465 33.5029 41.922C35.8549 42.378 37.8359 40.65 37.9859 38.388C38.0729 37.292 37.7439 35.832 37.7439 35.832L31.9499 34.709" stroke="#8C1E1E" stroke-width="2" stroke-miterlimit="10"/>
<path d="M2.16874 11.2399C1.11374 12.2949 0.94374 13.2849 1.01374 13.8329L14.4497 27.2669C16.8807 29.6979 20.4937 29.4919 20.4937 29.4919C20.4937 29.4919 20.6997 25.8789 18.2687 23.4479L4.83274 10.0139C4.28474 9.94394 3.29474 10.1149 2.23974 11.1689L2.16874 11.2399Z" stroke="#8C1E1E" stroke-width="2" stroke-miterlimit="10"/>
<path d="M6.97968 12.087L3.15967 15.906" stroke="#8C1E1E" stroke-width="2" stroke-miterlimit="10"/>
<path d="M25.3325 11.146L39.6015 12.929" stroke="#8C1E1E" stroke-width="2" stroke-miterlimit="10"/>
<path d="M22.3325 16.146L36.6015 17.929" stroke="#8C1E1E" stroke-width="2" stroke-miterlimit="10"/>
</svg>
