<svg id="point" viewBox="0 0 16 16" xmlns="http://www.w3.org/2000/svg">
<path d="M13.996 5.785C13.998 5.595 14.002 5.574 13.992 5.681C13.865 2.522 11.232 0 8.00002 0C4.68602 0 2.00002 2.649 2.00002 5.918C2.00002 5.93 2.00002 5.94 2.00002 5.951C2.00002 5.951 2.00002 5.952 1.99902 5.952C1.99902 5.968 2.00102 5.983 2.00102 5.998C2.01402 6.911 2.23502 7.774 2.62202 8.543C4.15502 12.155 7.99702 16 7.99702 16C7.99702 16 11.828 12.175 13.365 8.564C13.77 7.768 14 6.87 14 5.918C14 5.874 13.996 5.829 13.996 5.785ZM8.00002 7.678C7.01502 7.678 6.21602 6.89 6.21602 5.918C6.21602 4.946 7.01502 4.159 8.00002 4.159C8.98502 4.159 9.78402 4.947 9.78402 5.918C9.78302 6.891 8.98502 7.678 8.00002 7.678Z" />
</svg>
