<svg version="1.1"
  xmlns="http://www.w3.org/2000/svg"
  xmlns:xlink="http://www.w3.org/1999/xlink">

  <symbol id="arrow" viewBox="0 0 14 24">
    <path fill="none" stroke-width="2" stroke-linecap="round" stroke-linejoin="round" d="M1,17l6,6 M7,23l6-6 M7,23	V1"/>
  </symbol>

  <symbol id="arrow-down" viewBox="0 0 14 8">
    <path d="M1 1L7 7L13 1" stroke-width="2" stroke-linecap="round" stroke-linejoin="round"/>
  </symbol>

  <symbol id="search" viewBox="0 0 16 16">
    <g clip-path="url(#clip0)">
      <path d="M15.565 13.467L12.112 10.016C12.742 9.01 13.109 7.825 13.109 6.554C13.109 2.94 10.17 0 6.555 0C2.941 0 0 2.94 0 6.553C0 10.168 2.941 13.111 6.555 13.111C7.826 13.111 9.01 12.74 10.016 12.113L13.469 15.564C13.758 15.853 14.139 15.998 14.518 15.998C14.897 15.998 15.277 15.853 15.566 15.564C16.145 14.986 16.145 14.049 15.565 13.467ZM1.855 6.553C1.855 3.962 3.962 1.854 6.555 1.854C9.149 1.854 11.256 3.962 11.256 6.553C11.256 9.146 9.149 11.256 6.555 11.256C3.962 11.256 1.855 9.146 1.855 6.553Z"/>
    </g>
    <defs>
      <clipPath id="clip0">
        <rect width="16" height="16" fill="white"/>
      </clipPath>
    </defs>
  </symbol>

</svg>
