<svg width="29" height="33" viewBox="0 0 29 33" fill="none" xmlns="http://www.w3.org/2000/svg">
<path d="M10.4501 21.4258V24.83C10.4501 25.9364 9.5051 26.4422 8.41158 26.7282L4.36896 27.7971C2.54712 28.2737 1.03375 29.6123 1 30.9576V33.0002" stroke="#8C1E1E" stroke-width="2" stroke-miterlimit="10"/>
<path d="M18.5508 21.4258V24.83C18.5508 25.9364 19.4958 26.4422 20.5893 26.7282L24.6319 27.7971C26.4538 28.2737 27.9671 29.6123 28.0009 30.9576V33.0002" stroke="#8C1E1E" stroke-width="2" stroke-miterlimit="10"/>
<path d="M5.05078 26.1913V10.5318C5.05078 5.26754 9.28173 1 14.5009 1C19.72 1 23.951 5.26754 23.951 10.5318V26.1913" stroke="#8C1E1E" stroke-width="2" stroke-miterlimit="10"/>
<path d="M11.125 7.80816C10.1125 8.74433 7.75 11 7.75 13.2549C7.75 14.9148 7.75 16.8723 7.75 18.0208C7.75 20.6591 11.2094 21.8084 11.8 22.1059C12.3907 22.4035 13.4032 22.7868 14.5001 22.7868C15.597 22.7868 16.6095 22.4035 17.2001 22.1059C17.7907 21.8084 21.2502 20.6591 21.2502 18.0208C21.2502 16.8716 21.2502 14.2333 21.2502 12.5741C21.2502 12.5741 19.3095 9.8507 15.8501 9.8507C12.3907 9.8507 10.45 7.97837 10.45 5.76562" stroke="#8C1E1E" stroke-width="2" stroke-miterlimit="10"/>
</svg>
