<svg width="46" height="48" viewBox="0 0 46 48" fill="none" xmlns="http://www.w3.org/2000/svg">
<path d="M8 45C8 45 21.485 45 24.634 45C27.048 45 35.763 42.401 36.718 41.725C37.635 41.076 43.301 34.609 44.698 32.692C44.322 31.779 42.951 30.91 41.037 31.131C38.82 31.389 36.041 35.592 35.951 35.674L29.187 37.201C28.972 37.154 26.573 36.388 24.293 35.797C23.501 35.592 22.216 33.83 22.216 33.693C22.216 32.863 22.514 32.892 23.923 32.158C24.852 31.675 27.751 31.153 28.767 28.826C29.696 26.699 29.097 24.627 25.306 26.134C23.737 26.757 17.011 28.643 14.107 29.821C12.98 30.903 11.412 33.001 10.264 34.001H8V45Z" stroke="#8C1E1E" stroke-width="2" stroke-miterlimit="10" stroke-linejoin="round"/>
<path d="M8 32H1V47H8V32Z" stroke="#8C1E1E" stroke-width="2" stroke-miterlimit="10"/>
<path d="M23 18C25.2091 18 27 16.2091 27 14C27 11.7909 25.2091 10 23 10C20.7909 10 19 11.7909 19 14C19 16.2091 20.7909 18 23 18Z" stroke="#8C1E1E" stroke-width="2" stroke-miterlimit="10" stroke-linejoin="round"/>
<path d="M40 24C42.2091 24 44 22.2091 44 20C44 17.7909 42.2091 16 40 16C37.7909 16 36 17.7909 36 20C36 22.2091 37.7909 24 40 24Z" stroke="#8C1E1E" stroke-width="2" stroke-miterlimit="10" stroke-linejoin="round"/>
<path d="M35 9C37.2091 9 39 7.20914 39 5C39 2.79086 37.2091 1 35 1C32.7909 1 31 2.79086 31 5C31 7.20914 32.7909 9 35 9Z" stroke="#8C1E1E" stroke-width="2" stroke-miterlimit="10" stroke-linejoin="round"/>
</svg>
