<svg width="32" height="32" id="pdf" viewBox="0 0 32 32" 
  xmlns="http://www.w3.org/2000/svg">
  <rect y="13" width="21" height="12" rx="2" stroke="none"/>
  <path d="M4.80078 20.0703V22H3.42969V16.3125H5.69922C6.13411 16.3125 6.51823 16.3932 6.85156 16.5547C7.1875 16.7135 7.44661 16.9414 7.62891 17.2383C7.8138 17.5326 7.90625 17.8672 7.90625 18.2422C7.90625 18.7969 7.70703 19.2409 7.30859 19.5742C6.91276 19.9049 6.36849 20.0703 5.67578 20.0703H4.80078ZM4.80078 19.0117H5.69922C5.96484 19.0117 6.16667 18.9453 6.30469 18.8125C6.44531 18.6797 6.51562 18.4922 6.51562 18.25C6.51562 17.9844 6.44401 17.7721 6.30078 17.6133C6.15755 17.4544 5.96224 17.3737 5.71484 17.3711H4.80078V19.0117ZM8.64062 22V16.3125H10.4727C10.9753 16.3125 11.4271 16.4271 11.8281 16.6562C12.2292 16.8828 12.5417 17.2044 12.7656 17.6211C12.9922 18.0352 13.1068 18.5 13.1094 19.0156V19.2773C13.1094 19.7982 12.9987 20.2656 12.7773 20.6797C12.5586 21.0911 12.2487 21.4141 11.8477 21.6484C11.4492 21.8802 11.0039 21.9974 10.5117 22H8.64062ZM10.0117 17.3711V20.9453H10.4883C10.8815 20.9453 11.1836 20.806 11.3945 20.5273C11.6055 20.2461 11.7109 19.8294 11.7109 19.2773V19.0312C11.7109 18.4818 11.6055 18.0677 11.3945 17.7891C11.1836 17.5104 10.8763 17.3711 10.4727 17.3711H10.0117ZM17.3945 19.7344H15.1836V22H13.8125V16.3125H17.6172V17.3711H15.1836V18.6797H17.3945V19.7344Z" fill="white"/>
  <path d="M9 11V1H23M9 27V31H31V9M23 1L31 9M23 1V9H31" stroke="black" fill="none" stroke-width="2"/>
</svg>
