<svg width="46" height="46" viewBox="0 0 46 46" fill="none" xmlns="http://www.w3.org/2000/svg">
<path d="M27.6062 23.8846L23.0492 21.0156L12.5322 28.6566L17.0892 31.5256L27.6062 23.8846Z" stroke="#8C1E1E" stroke-width="2" stroke-miterlimit="10"/>
<path d="M15.9981 12.0001C17.9561 10.5781 22.1681 11.2461 24.1731 14.9091C24.7851 16.0271 25.2371 17.1711 25.4831 18.2841L43.2991 29.3511C43.6881 29.5841 43.9501 29.9771 44.0231 30.4301C44.3071 32.2041 44.4231 34.6441 43.9991 36.0001C42.3991 39.1101 37.8021 42.3921 32.1551 44.5041C30.6321 45.0731 27.9861 44.7361 26.5901 43.8941L10.2881 34.3111C8.28611 35.8761 4.34511 34.0321 2.30111 30.3421C0.257115 26.6531 0.697116 22.8711 3.09012 21.0001L15.9981 12.0001Z" stroke="#8C1E1E" stroke-width="2" stroke-miterlimit="10"/>
<path d="M21.998 34.0005H23.998" stroke="#8C1E1E" stroke-width="2" stroke-miterlimit="10"/>
<path d="M25.998 31.0005H27.998" stroke="#8C1E1E" stroke-width="2" stroke-miterlimit="10"/>
<path d="M29.998 28.0005H31.998" stroke="#8C1E1E" stroke-width="2" stroke-miterlimit="10"/>
<path d="M25.998 36.0005H27.998" stroke="#8C1E1E" stroke-width="2" stroke-miterlimit="10"/>
<path d="M29.998 33.0005H31.998" stroke="#8C1E1E" stroke-width="2" stroke-miterlimit="10"/>
<path d="M33.998 30.0005H35.998" stroke="#8C1E1E" stroke-width="2" stroke-miterlimit="10"/>
<path d="M41.9981 25.0004V15.4204C41.9981 13.7734 41.1741 11.9074 40.0191 11.2534L22.2091 1.22736C21.0551 0.573361 19.9971 1.37836 19.9971 3.02536V8.00036" stroke="#8C1E1E" stroke-width="2" stroke-miterlimit="10"/>
<path d="M23.998 8.00049L28.998 11.0005" stroke="#8C1E1E" stroke-width="2" stroke-miterlimit="10"/>
<path d="M2.99805 22.0003C4.74805 20.5943 8.21905 22.3363 10.2231 26.0003" stroke="#8C1E1E" stroke-width="2" stroke-miterlimit="10" stroke-linecap="round"/>
</svg>
