<svg width="46" height="44" viewBox="0 0 46 44" fill="none" xmlns="http://www.w3.org/2000/svg">
<path d="M41 22L28 35L22 29L18 33L28 43L45 26L41 22Z" stroke="#8C1E1E" stroke-width="2" stroke-miterlimit="10" stroke-linejoin="round"/>
<path d="M36 6V1H32" stroke="#8C1E1E" stroke-width="2" stroke-miterlimit="10" stroke-linecap="round" stroke-linejoin="round"/>
<path d="M1 6V1H5" stroke="#8C1E1E" stroke-width="2" stroke-miterlimit="10" stroke-linecap="round" stroke-linejoin="round"/>
<path d="M1 32V37H5" stroke="#8C1E1E" stroke-width="2" stroke-miterlimit="10" stroke-linecap="round" stroke-linejoin="round"/>
<path d="M29 27V26C29 22 23.496 19.007 19 19.007C14.504 19.007 9 22 9 26V32" stroke="#8C1E1E" stroke-width="2" stroke-miterlimit="10" stroke-linecap="round"/>
<path d="M19 19C15.393 19 13 16.583 13 13.601V10.4C13 7.41796 15.393 5.00098 19 5.00098C22.607 5.00098 25 7.41796 25 10.4V13.601C25 16.583 22.607 19 19 19Z" stroke="#8C1E1E" stroke-width="2" stroke-miterlimit="10"/>
</svg>
