<svg width="48" height="47" viewBox="0 0 48 47" fill="none" xmlns="http://www.w3.org/2000/svg">
<path d="M46 46H20C19.447 46 19 45.553 19 45V29C19 28.447 19.447 28 20 28H46C46.553 28 47 28.447 47 29V45C47 45.553 46.553 46 46 46Z" stroke="#8C1E1E" stroke-width="2" stroke-miterlimit="10"/>
<path d="M19 38H47" stroke="#8C1E1E" stroke-width="2" stroke-miterlimit="10"/>
<path d="M19 42H47" stroke="#8C1E1E" stroke-width="2" stroke-miterlimit="10"/>
<path d="M39 20L35 24L31 20" stroke="#8C1E1E" stroke-width="2" stroke-miterlimit="10"/>
<path d="M16.011 34.885C7.55999 33.9 1 26.716 1 18C1 8.611 8.611 1 18 1C27.389 1 35 8.611 35 18V24" stroke="#8C1E1E" stroke-width="2" stroke-miterlimit="10"/>
<path d="M20 19V20C20 20.994 20.917 22 22.022 22H24C25.104 22 26 20.994 26 20V19.697C26 18.923 25.46 18.234 24.644 17.99L21.373 17.01C20.557 16.766 20 16.077 20 15.303V15C20 14.006 20.896 13 22 13H24C25.104 13 26 14.006 26 15V16" stroke="#8C1E1E" stroke-width="2" stroke-miterlimit="10"/>
<path d="M23 14V11" stroke="#8C1E1E" stroke-width="2" stroke-miterlimit="10"/>
<path d="M8 18.0494H14.8741C14.8741 18.0494 16 18.1348 16 16.8708C16 15.6076 16 14.8597 16 14.8597V15.3576C16 15.3576 16 15.443 16 14.1799C16 12.9158 14.8732 13.0012 14.8732 13.0012H10.3994V23" stroke="#8C1E1E" stroke-width="2" stroke-miterlimit="10"/>
<path d="M8 21H14" stroke="#8C1E1E" stroke-width="2" stroke-miterlimit="10"/>
<path d="M23 21V24" stroke="#8C1E1E" stroke-width="2" stroke-miterlimit="10"/>
<path d="M45 35H42" stroke="#8C1E1E" stroke-width="2" stroke-miterlimit="10"/>
<path d="M40 35H37" stroke="#8C1E1E" stroke-width="2" stroke-miterlimit="10"/>
</svg>
