<svg width="44" height="48" viewBox="0 0 44 48" fill="none" xmlns="http://www.w3.org/2000/svg">
<path d="M23 1L19 5L23 9" stroke="#8C1E1E" stroke-width="2" stroke-miterlimit="10"/>
<path d="M15.261 6.104C6.969 8.913 1 16.759 1 26C1 37.598 10.402 47 22 47C33.598 47 43 37.598 43 26C43 14.402 33.598 5 22 5C21.167 5 19 5 19 5" stroke="#8C1E1E" stroke-width="2" stroke-miterlimit="10"/>
<path d="M18.9986 11.001L5.99854 24.001L8.99876 27.0012L21.9988 14.0012L18.9986 11.001Z" stroke="#8C1E1E" stroke-width="2" stroke-miterlimit="10"/>
<path d="M32 28L29 25H23V19L20 16" stroke="#8C1E1E" stroke-width="2" stroke-miterlimit="10"/>
<path d="M11 25L14 28H20V34L23 37" stroke="#8C1E1E" stroke-width="2" stroke-miterlimit="10"/>
<path d="M24.0014 41.999L37.0015 28.999L34.0012 25.9988L21.0012 38.9988L24.0014 41.999Z" stroke="#8C1E1E" stroke-width="2" stroke-miterlimit="10"/>
</svg>
