<svg width="32" height="32" id="doc" viewBox="0 0 32 32" 
  xmlns="http://www.w3.org/2000/svg">
  <rect y="13" width="22" height="12" rx="2" stroke="none"/>
  <path d="M3.42969 22V16.3125H5.26172C5.76432 16.3125 6.21615 16.4271 6.61719 16.6562C7.01823 16.8828 7.33073 17.2044 7.55469 17.6211C7.78125 18.0352 7.89583 18.5 7.89844 19.0156V19.2773C7.89844 19.7982 7.78776 20.2656 7.56641 20.6797C7.34766 21.0911 7.03776 21.4141 6.63672 21.6484C6.23828 21.8802 5.79297 21.9974 5.30078 22H3.42969ZM4.80078 17.3711V20.9453H5.27734C5.67057 20.9453 5.97266 20.806 6.18359 20.5273C6.39453 20.2461 6.5 19.8294 6.5 19.2773V19.0312C6.5 18.4818 6.39453 18.0677 6.18359 17.7891C5.97266 17.5104 5.66536 17.3711 5.26172 17.3711H4.80078ZM13.418 19.2734C13.418 19.8281 13.3151 20.319 13.1094 20.7461C12.9036 21.1732 12.6107 21.5026 12.2305 21.7344C11.8529 21.9635 11.4219 22.0781 10.9375 22.0781C10.4531 22.0781 10.0234 21.9674 9.64844 21.7461C9.27344 21.5221 8.98047 21.2031 8.76953 20.7891C8.5612 20.375 8.45182 19.8997 8.44141 19.3633V19.043C8.44141 18.4857 8.54297 17.9948 8.74609 17.5703C8.95182 17.1432 9.24479 16.8138 9.625 16.582C10.0078 16.3503 10.4427 16.2344 10.9297 16.2344C11.4115 16.2344 11.8411 16.349 12.2188 16.5781C12.5964 16.8073 12.8893 17.1341 13.0977 17.5586C13.3086 17.9805 13.4154 18.4648 13.418 19.0117V19.2734ZM12.0234 19.0352C12.0234 18.4701 11.9284 18.0417 11.7383 17.75C11.5508 17.4557 11.2812 17.3086 10.9297 17.3086C10.2422 17.3086 9.87891 17.8242 9.83984 18.8555L9.83594 19.2734C9.83594 19.8307 9.92839 20.2591 10.1133 20.5586C10.2982 20.8581 10.5729 21.0078 10.9375 21.0078C11.2839 21.0078 11.5508 20.8607 11.7383 20.5664C11.9258 20.2721 12.0208 19.849 12.0234 19.2969V19.0352ZM18.7266 20.0742C18.7083 20.4701 18.6016 20.8203 18.4062 21.125C18.2109 21.4271 17.9362 21.6615 17.582 21.8281C17.2305 21.9948 16.8281 22.0781 16.375 22.0781C15.6276 22.0781 15.0391 21.8346 14.6094 21.3477C14.1797 20.8607 13.9648 20.1732 13.9648 19.2852V19.0039C13.9648 18.4466 14.0612 17.9596 14.2539 17.543C14.4492 17.1237 14.7292 16.8008 15.0938 16.5742C15.4583 16.3451 15.8802 16.2305 16.3594 16.2305C17.0495 16.2305 17.6042 16.4128 18.0234 16.7773C18.4427 17.1393 18.681 17.6393 18.7383 18.2773H17.3711C17.3607 17.931 17.2734 17.6823 17.1094 17.5312C16.9453 17.3802 16.6953 17.3047 16.3594 17.3047C16.0182 17.3047 15.7682 17.4323 15.6094 17.6875C15.4505 17.9427 15.3672 18.3503 15.3594 18.9102V19.3125C15.3594 19.9193 15.4349 20.3529 15.5859 20.6133C15.7396 20.8737 16.0026 21.0039 16.375 21.0039C16.6901 21.0039 16.931 20.9297 17.0977 20.7812C17.2643 20.6328 17.3529 20.3971 17.3633 20.0742H18.7266Z" fill="white"/>
  <path d="M9 11V1H23M9 27V31H31V9M23 1L31 9M23 1V9H31" stroke="black" fill="none" stroke-width="2"/>
</svg>
