<svg id="logo" viewBox="0 0 216 40" xmlns="http://www.w3.org/2000/svg">
<g clip-path="url(#clip0)">
<path d="M0.362915 39.327L27.9037 27.5731L39.6555 39.327V4.05237L0.362915 39.327Z" />
<path d="M-0.0461426 -0.00842285V35.2662L39.4531 -0.00842285L11.9007 11.95L-0.0461426 -0.00842285Z" />
<path d="M64.1086 22.8862V17.607L64.0977 17.5039L64.0845 17.4047L64.0588 17.3131L64.0324 17.237L63.9819 17.1623L63.9322 17.0831L63.8817 17.0223L63.8032 16.9693L63.7279 16.9054L63.6533 16.8677L63.5624 16.83L63.4746 16.7908L63.3837 16.7662L63.2959 16.7523L63.2057 16.7416H63.1055H63.013L62.9392 16.7523L62.8506 16.7662L62.7722 16.7908L62.696 16.83L62.6199 16.8677L62.543 16.917L62.466 16.9685L62.4023 17.0323L62.3534 17.0954L62.3013 17.1608L62.2625 17.2354L62.2236 17.327L62.212 17.4147L62.2011 17.5031L62.1848 17.6062V22.8854L62.2011 23.0123L62.212 23.1385L62.2236 23.2531L62.2625 23.3685L62.3013 23.4708L62.3534 23.5716L62.4023 23.6631L62.48 23.7516L62.543 23.827L62.6199 23.9047L62.696 23.9685L62.7722 24.0077L62.8615 24.0439L62.9392 24.0847L63.0286 24.0962H63.1055H63.2057L63.2959 24.0847L63.3837 24.0439L63.4746 24.0185L63.5507 23.9693L63.6401 23.9054L63.717 23.8416L63.804 23.7639L63.8693 23.6754L63.933 23.5723L63.9827 23.4716L64.0332 23.3693L64.0596 23.2539L64.0853 23.1393L64.0985 23.0131L64.1086 22.8862ZM57.2844 21.9308H55.8703V28.2539H51.1696V12.3162H55.8703V17.9H57.2844L57.2968 17.5039L57.3341 17.1216L57.3862 16.7531L57.4623 16.3847L57.5509 16.0254L57.6799 15.6685L57.8182 15.3362L57.9728 15.0054L58.0614 14.8408L58.1616 14.6862L58.2525 14.5354L58.3683 14.3923L58.4677 14.2531L58.5835 14.1116L58.7109 13.9716L58.8368 13.8431L58.965 13.7185L59.1041 13.59L59.2447 13.4754L59.3845 13.3608L59.6922 13.1423L60.0224 12.9516L60.2027 12.8623L60.3651 12.7723L60.557 12.6962L60.7373 12.6216L60.9261 12.557L61.1188 12.4947L61.3099 12.43L61.5135 12.38L61.7038 12.3416L61.9206 12.3039L62.125 12.2631L62.341 12.237L62.7862 12.2116L63.2446 12.2008H63.6284L64.0099 12.237L64.3891 12.2923L64.7597 12.3685L65.1171 12.4577L65.4613 12.5716L65.8039 12.7108L66.1373 12.8639L66.455 13.0431L66.7604 13.2347L67.0409 13.4393L67.3074 13.6816L67.5622 13.9223L67.8039 14.1916L68.0207 14.4708L68.2235 14.777L68.326 14.9316L68.4154 15.0939L68.4923 15.2485L68.5661 15.4123L68.6446 15.5923L68.7075 15.7593L68.758 15.9239L68.8225 16.1031L68.8614 16.2793L68.9002 16.4585L68.9383 16.65L68.9639 16.83L69.0012 17.2108L69.0144 17.607V22.707L69.0012 23.1393L68.9763 23.5593L68.9375 23.9577L68.8854 24.3408L68.8093 24.7093L68.7199 25.0523L68.6197 25.3862L68.5032 25.7031L68.4262 25.8454L68.3618 25.9962L68.2747 26.1354L68.1854 26.2785L68.0945 26.4039L67.995 26.547L67.8808 26.6623L67.765 26.7885L67.6384 26.9016L67.5125 27.0162L67.3703 27.12L67.232 27.2339L67.0782 27.3377L66.9127 27.4262L66.7464 27.5147L66.5817 27.6047L66.403 27.6923L66.2111 27.7693L66.0067 27.8462L65.8024 27.9093L65.5848 27.9739L65.3681 28.0247L65.1256 28.0762L64.884 28.1277L64.6439 28.1639L64.386 28.2016L64.1202 28.2285L63.8397 28.2531L63.2687 28.2916H62.6564H62.428L62.2104 28.2777L62.0076 28.2639L61.8017 28.24L61.5982 28.2147L61.4094 28.1747L61.219 28.127L61.0263 28.0754L60.846 28.0093L60.6805 27.9454L60.5026 27.8685L60.3371 27.7939L60.1848 27.7016L60.0318 27.6039L59.8818 27.5154L59.7404 27.3985L59.4599 27.1716L59.2066 26.9285L58.9759 26.6854L58.7591 26.43L58.5695 26.1631L58.3916 25.8831L58.2253 25.6031L58.0971 25.31L57.9704 25.0162L57.8547 24.7223L57.7669 24.457L57.6783 24.1862L57.6029 23.9293L57.5369 23.6885L57.4872 23.447L57.4359 23.2185L57.3722 22.81L57.3333 22.4539L57.296 22.1593L57.2844 21.9308Z" />
<path d="M70.4541 28.0877V17.0969L70.4658 16.7661L70.4906 16.4477L70.5427 16.1423L70.6188 15.8485L70.7082 15.5538L70.8232 15.2731L70.9638 15.0054L71.1138 14.7385L71.2824 14.4846L71.4844 14.2531L71.6887 14.0238L71.9187 13.8192L72.1596 13.6308L72.4276 13.4377L72.7089 13.2738L73.0135 13.1185L73.3313 12.9777L73.6506 12.8631L73.9956 12.7615L74.3499 12.6738L74.7065 12.6115L75.0896 12.5708L75.4711 12.5308H75.8673H79.4958V16.9315H77.1012H76.8471L76.6054 16.9554L76.3887 16.9831L76.1968 17.0223L76.032 17.0723L75.8914 17.1377L75.764 17.2115L75.6738 17.3L75.5969 17.4046L75.5348 17.5315L75.4843 17.6723L75.433 17.8246L75.3949 18.0023L75.3833 18.2054L75.3553 18.4246V18.6538V28.0877H70.4541Z" />
<path d="M86.9324 20.9601H80.8082V23.9285H86.9324V20.9601Z" />
<path d="M101.147 14.9923V28.0877H96.319V21.75L93.288 26.1508V28.1269H88.2726V12.5308H93.1769V18.7415L96.0781 14.24V12.5308H101.147V14.9923Z" />
<path d="M102.358 28.0877V12.5308H107.261V17.9769H109.528V12.5308H114.433V28.0877H109.528V21.9308H107.261V28.0877H102.358Z" />
<path d="M115.77 28.0878V17.607L115.782 17.2116L115.807 16.8408L115.858 16.4724L115.935 16.1293L116.036 15.7839L116.15 15.4531L116.29 15.147L116.46 14.8416L116.634 14.5593L116.829 14.2793L117.056 14.0355L117.284 13.7931L117.538 13.5778L117.82 13.3731L118.112 13.1824L118.42 13.0155L118.748 12.8631L119.095 12.7247L119.464 12.6224L119.845 12.517L120.239 12.457L120.66 12.4062L121.093 12.3685H121.539H121.768L122.175 12.3801L122.57 12.4062L122.953 12.4678L123.322 12.5447L123.499 12.5978L123.678 12.6478L123.844 12.7101L124.01 12.7724L124.176 12.8508L124.341 12.9278L124.504 13.0155L124.66 13.1047L124.951 13.2962L125.232 13.4993L125.5 13.7047L125.74 13.9362L125.958 14.1793L126.159 14.4308L126.352 14.7001L126.521 14.9793L126.672 15.2616L126.798 15.5408L126.901 15.8208L126.99 16.1147L127.068 16.4093L127.118 16.6908L127.141 16.9831L127.155 17.2731L127.141 17.4655L127.13 17.6462L127.118 17.8362L127.079 18.0162L127.041 18.1793L127.003 18.3593L126.952 18.5239L126.89 18.6778L126.814 18.8308L126.735 18.9839L126.647 19.1231L126.544 19.2539L126.443 19.3785L126.327 19.5047L126.215 19.6216L126.07 19.7231L126.24 19.8124L126.391 19.9155L126.544 20.017L126.684 20.1324L126.826 20.2593L126.965 20.3985L127.091 20.5393L127.217 20.6924L127.333 20.8593L127.449 21.0247L127.551 21.2031L127.651 21.3662L127.74 21.5462L127.817 21.7401L127.893 21.9308L127.957 22.1216L128.009 22.3108L128.058 22.5016L128.095 22.697L128.136 22.8862L128.159 23.0785L128.188 23.2678L128.199 23.4462V23.6393L128.188 23.9285L128.176 24.2131L128.136 24.4908L128.071 24.7593L128.009 25.0401L127.932 25.2978L127.83 25.5647L127.717 25.8178L127.589 26.0593L127.449 26.2908L127.294 26.5201L127.118 26.7231L126.94 26.9293L126.735 27.1062L126.521 27.2855L126.288 27.4516L126.059 27.6055L125.805 27.7316L125.551 27.8339L125.271 27.9224L125.003 27.9978L124.711 28.0362L124.416 28.0755L124.1 28.0878H121.374V24.1101L121.578 24.0962L121.768 24.0855L121.959 24.0601L122.124 24.0208L122.279 23.9839L122.418 23.9285L122.544 23.8539L122.66 23.7908L122.76 23.7031L122.851 23.6255L122.927 23.537L122.992 23.4462L123.042 23.3593L123.079 23.2531L123.091 23.1555L123.105 23.0508L123.091 22.9355L123.079 22.8231L123.042 22.7078L122.992 22.5916L122.927 22.4785L122.851 22.377L122.76 22.2731L122.66 22.1739L122.544 22.0685L122.418 21.9801L122.289 21.9147L122.148 21.8547L122.011 21.8131L121.858 21.7778L121.704 21.7655L121.539 21.7501H121.374V18.487H121.489L121.59 18.4739L121.678 18.4493L121.768 18.4116L121.858 18.3708L121.935 18.3208L122.011 18.2562L122.088 18.1931L122.148 18.117L122.201 18.0408L122.253 17.9524L122.289 17.8747L122.318 17.7847L122.34 17.6962L122.352 17.607V17.5039V17.4155L122.34 17.3393L122.318 17.2478L122.302 17.1731L122.263 17.0831L122.227 17.0085L122.19 16.9316L122.137 16.8547L122.075 16.7785L122.011 16.7285L121.945 16.6755L121.869 16.6255L121.805 16.6001L121.717 16.5739L121.627 16.5601H121.539H121.401L121.273 16.587L121.156 16.6116L121.07 16.6639L120.975 16.7285L120.901 16.8031L120.848 16.8955L120.812 16.9931L120.775 17.1216L120.749 17.2608L120.723 17.4424L120.709 17.6316L120.684 18.0916L120.671 18.6539V28.0878H115.77Z" />
<path d="M139.663 28.0877H136.923L136.63 28.0754L136.351 28.0631L136.072 28.0515L135.793 28.0085L135.524 27.9731L135.268 27.9338L135.001 27.8823L134.745 27.8192L134.503 27.7461L134.262 27.6685L134.021 27.5777L133.792 27.4892L133.56 27.3731L133.347 27.2723L133.127 27.1438L132.913 27.0161L132.707 26.8769L132.503 26.7354L132.314 26.5954L132.135 26.4408L131.957 26.2908L131.779 26.1223L131.613 25.9577L131.46 25.7923L131.31 25.6146L131.154 25.4238L131.017 25.2461L130.886 25.0523L130.759 24.8485L130.646 24.66L130.533 24.4415L130.416 24.2354L130.327 24.0208L130.225 23.8008L130.135 23.5861L130.06 23.3592L129.982 23.1392L129.919 22.91L129.854 22.6831L129.805 22.4546L129.753 22.2223L129.715 21.98L129.676 21.75L129.637 21.5085L129.627 21.2654L129.601 21.0246V20.78L129.589 20.5392L129.601 20.1715L129.627 19.7985L129.663 19.4308L129.715 19.0592L129.793 18.6923L129.867 18.3331L129.97 17.9769L130.087 17.6069L130.225 17.2608L130.364 16.9061L130.533 16.5738L130.71 16.2415L130.903 15.9246L131.105 15.6161L131.32 15.3238L131.56 15.0308L131.818 14.75L132.084 14.4846L132.364 14.2292L132.657 13.9969L132.961 13.7685L133.295 13.5661L133.626 13.3731L133.982 13.2069L134.337 13.0431L134.72 12.9015L135.115 12.7861L135.524 12.6969L135.945 12.6223L136.365 12.5708L136.811 12.5446L137.267 12.5308H139.663V16.56H138.11H137.828L137.561 16.5869L137.283 16.6254L137.026 16.6908L136.759 16.7661L136.491 16.8546L136.238 16.9554L135.98 17.0831L135.74 17.2246L135.535 17.3777L135.436 17.4538L135.344 17.5315L135.268 17.6192L135.191 17.6961L135.115 17.7846L135.064 17.8869L135.001 17.9769L134.951 18.0777L134.912 18.1692L134.872 18.2846L134.848 18.3838L134.835 18.4869H139.663V22.1215H134.835L134.872 22.2869L134.951 22.4546L135.026 22.6038L135.115 22.7708L135.229 22.9238L135.357 23.0785L135.5 23.2185L135.65 23.3592L135.828 23.4961L136.006 23.6115L136.198 23.7138L136.389 23.7908L136.594 23.8538L136.811 23.9054L137.037 23.9285H137.267H139.663V28.0877Z" />
<path d="M151.087 28.0877H148.489L148.195 28.0754L147.903 28.0631L147.624 28.0515L147.344 28.0085L147.075 27.9731L146.808 27.9338L146.539 27.8692L146.287 27.8077L146.031 27.7461L145.79 27.6546L145.548 27.5677L145.307 27.4761L145.078 27.3615L144.847 27.2477L144.618 27.12L144.402 26.9908L144.198 26.8492L143.992 26.71L143.79 26.5569L143.6 26.4031L143.405 26.2408L143.229 26.0731L143.062 25.9077L142.898 25.7285L142.745 25.5515L142.592 25.3585L142.439 25.1669L142.298 24.9785L142.171 24.7715L142.043 24.5677L141.93 24.3508L141.815 24.1331L141.714 23.9054L141.611 23.6885L141.524 23.4592L141.432 23.2423L141.355 23.0131L141.28 22.7823L141.218 22.5523L141.165 22.3238L141.115 22.0838L141.064 21.8546L141.024 21.6108L141.002 21.3808L140.976 21.14L140.963 20.8954L140.949 20.6523V20.4108V20.0438L140.976 19.6715L141.012 19.3138L141.075 18.9469L141.141 18.59L141.229 18.2308L141.33 17.8746L141.446 17.5169L141.572 17.1731L141.726 16.83L141.892 16.51L142.07 16.1777L142.259 15.8746L142.479 15.5669L142.705 15.2615L142.949 14.9792L143.203 14.7L143.472 14.4308L143.764 14.19L144.07 13.9469L144.388 13.73L144.732 13.5415L145.078 13.3492L145.445 13.1823L145.829 13.0292L146.22 12.8885L146.63 12.7861L147.036 12.6854L147.47 12.6223L147.916 12.5708L148.364 12.5446L148.82 12.5308H151.087V17.0969H149.163H148.921L148.678 17.1215L148.45 17.1623L148.234 17.2115L148.032 17.2731L147.828 17.3661L147.624 17.4538L147.443 17.5685L147.265 17.6854L147.099 17.8246L146.948 17.9654L146.795 18.1031L146.666 18.2692L146.539 18.4354L146.441 18.6154L146.336 18.7931L146.249 18.9838L146.171 19.1746L146.106 19.3785L146.057 19.5715L146.018 19.7746L145.992 19.9677L145.979 20.1715L145.967 20.3746L145.979 20.5908L145.992 20.8077L146.031 21.0123L146.068 21.2138L146.122 21.42L146.196 21.6223L146.274 21.8269L146.36 22.0177L146.464 22.2092L146.577 22.3885L146.704 22.5661L146.843 22.7331L146.997 22.8861L147.162 23.0277L147.344 23.1661L147.537 23.28L147.727 23.3969L147.929 23.4961L148.147 23.5738L148.374 23.6508L148.604 23.7031L148.832 23.74L149.088 23.7646H149.342H151.087V28.0877Z" />
<path d="M154.817 28.0877V16.9315H152.206V12.5308H162.283V16.9315H159.672V28.0877H154.817Z" />
<path d="M173.873 18.6539L174.037 18.7547L174.203 18.8562L174.345 18.9724L174.496 19.0985L174.638 19.2401L174.777 19.3785L174.901 19.5324L175.02 19.6985L175.147 19.877L175.248 20.0547L175.35 20.2347L175.451 20.4239L175.54 20.6278L175.618 20.8339L175.681 21.0362L175.757 21.2547L175.808 21.4585L175.858 21.6724L175.897 21.8931L175.937 22.1078L175.962 22.3239L175.986 22.5424V22.7601L175.999 22.9724L175.986 23.3055L175.962 23.6393L175.923 23.9578L175.872 24.2639L175.808 24.5678L175.719 24.8739L175.618 25.1685L175.502 25.4608L175.377 25.7539L175.234 26.0201L175.082 26.2778L174.901 26.5193L174.725 26.7485L174.521 26.967L174.306 27.1708L174.075 27.3485L173.848 27.5278L173.593 27.667L173.337 27.7947L173.071 27.8962L172.791 27.9855L172.511 28.0362L172.203 28.0762L171.896 28.0878H163.57V17.607L163.583 17.2108L163.608 16.8424L163.658 16.4724L163.732 16.1285L163.836 15.7831L163.952 15.4524L164.092 15.1462L164.244 14.8416L164.436 14.5593L164.625 14.2785L164.842 14.0362L165.085 13.7939L165.339 13.5762L165.619 13.3731L165.911 13.1824L166.217 13.0155L166.548 12.8639L166.892 12.7255L167.261 12.6231L167.644 12.5178L168.038 12.4562L168.458 12.4062L168.893 12.3685H169.339H175.058V16.2193H169.339L169.199 16.2293L169.07 16.2547L168.97 16.3062L168.868 16.3693L168.779 16.447L168.715 16.5355L168.651 16.6508L168.613 16.7916L168.574 16.9424L168.548 17.1216L168.523 17.3124L168.511 17.5416L168.473 18.0539V18.6539V23.8155H169.172H169.377L169.569 23.8008L169.748 23.7793L169.912 23.7524L170.064 23.7139L170.204 23.6647L170.332 23.6116L170.458 23.537L170.562 23.4716L170.651 23.397L170.726 23.3201L170.791 23.2439L170.841 23.1562L170.866 23.0647L170.891 22.9724L170.907 22.8847L170.891 22.7601L170.841 22.6293L170.779 22.5016L170.689 22.377L170.575 22.2501L170.434 22.1224L170.279 22.0193L170.113 21.9308L169.924 21.8539L169.748 21.7893L169.541 21.7647L169.339 21.7501H169.172V18.487L169.759 18.2693L170.614 18.1408L171.896 18.2693L173.873 18.6539Z" />
<path d="M177.439 28.0877V18.1416V17.76L177.479 17.39L177.527 17.0223L177.605 16.6639L177.707 16.2931L177.833 15.9493L177.975 15.5923L178.139 15.2485L178.229 15.0823L178.317 14.9162L178.42 14.7631L178.532 14.597L178.635 14.4423L178.752 14.3047L178.879 14.1639L179.003 14.0239L179.133 13.8854L179.274 13.7562L179.414 13.617L179.565 13.4993L179.871 13.26L180.203 13.0431L180.369 12.9416L180.547 12.8385L180.724 12.7485L180.916 12.6739L181.094 12.5977L181.285 12.517L181.491 12.4677L181.682 12.4062L181.884 12.3539L182.088 12.317L182.292 12.2785L182.509 12.2523L182.726 12.2247L182.94 12.2123L183.158 12.2008H183.387H183.682L183.961 12.2123L184.253 12.237L184.533 12.2785L184.8 12.33L185.079 12.3939L185.349 12.4677L185.616 12.5447L185.871 12.6339L186.128 12.7485L186.38 12.8631L186.621 12.9931L186.852 13.1308L187.079 13.2854L187.297 13.4623L187.514 13.6423L187.717 13.8316L187.908 14.0354L188.099 14.2531L188.267 14.4847L188.431 14.7262L188.571 14.9923L188.713 15.2616L188.838 15.5408L188.953 15.8485L189.054 16.1539L189.145 16.4847L189.208 16.83L189.258 17.1731L189.297 17.5423L189.322 17.9262L189.333 18.3208V28.0877H184.419V23.5593H183.041V19.3662H184.419V17.8116V17.6854L184.407 17.5685L184.381 17.4539L184.354 17.3531L184.304 17.2608L184.253 17.1731L184.203 17.0831L184.125 17.0223L184.049 16.9554L183.971 16.8954L183.884 16.8408L183.794 16.8031L183.69 16.7785L183.604 16.7531L183.49 16.7423H183.387H183.274L183.183 16.7531L183.079 16.7785L182.981 16.8031L182.891 16.8408L182.813 16.8954L182.726 16.9554L182.649 17.0223L182.571 17.0831L182.509 17.1731L182.457 17.2608L182.42 17.3531L182.38 17.4539L182.356 17.5685L182.341 17.6854V17.8116V28.0877H177.439Z" />
<path d="M190.583 28.0877V12.5308H195.5V17.9769H197.767V12.5308H202.672V28.0877H197.767V21.9308H195.5V28.0877H190.583Z" />
<path d="M203.957 28.0877V12.5308H208.859V18.3208L208.91 18.3708L208.988 18.3592L209.063 18.3331L209.14 18.2692L209.218 18.1931L209.294 18.1031L209.369 17.9908L209.434 17.8492L209.508 17.6854L209.637 17.3531L209.751 17.0223L209.839 16.7031L209.907 16.3961L211.05 12.5308H215.953L214.798 16.3961L214.704 16.7531L214.606 17.0831L214.514 17.4046L214.412 17.6961L214.298 17.9654L214.196 18.2177L214.081 18.4492L213.98 18.6538L213.866 18.8308L213.738 18.9969L213.624 19.1369L213.497 19.2638L213.369 19.3661L213.243 19.4446L213.114 19.5046L212.973 19.5461L213.243 19.5969L213.497 19.6592L213.751 19.7485L213.98 19.8523L214.209 19.9792L214.424 20.1185L214.641 20.2715L214.833 20.4369L214.936 20.5392L215.012 20.6408L215.103 20.7423L215.177 20.8592L215.242 20.9746L215.305 21.1L215.367 21.23L215.42 21.3661L215.459 21.52L215.496 21.6723L215.535 21.8269L215.558 21.9938L215.598 22.3377L215.61 22.7077V28.0877H210.706V23.2185L210.695 23.0277L210.681 22.86L210.657 22.7077L210.605 22.5661L210.552 22.4408L210.489 22.3238L210.416 22.2346L210.323 22.16L210.224 22.0969L210.097 22.03L209.944 21.9685L209.777 21.9146L209.574 21.8769L209.355 21.8269L209.127 21.7892L208.859 21.75V28.0877H203.957Z" />
</g>
<defs>
<clipPath id="clip0">
<rect width="216" height="40" fill="white"/>
</clipPath>
</defs>
</svg>
